<?xml version="1.0" standalone="no"?><!DOCTYPE svg PUBLIC "-//W3C//DTD SVG 1.1//EN" "http://www.w3.org/Graphics/SVG/1.1/DTD/svg11.dtd" [<!ENTITY nbsp " ">]><svg data-noselect="" viewBox="172.39078521729 70.18419400187375 673.49169158935 505.1187686920125" width="673.49169158935" ref="svg_canvas" height="505.1187686920125" preserveAspectRatio="none" version="1.1" xmlns="http://www.w3.org/2000/svg" style="background: #090e1c;">
    <def></def>
    <g id="shape_lTvgtjCGsN" ref="shape_lTvgtjCGsN" key="shape_lTvgtjCGsN" transform="translate(275.48741912842,200.27146911621) rotate(0,106.8433583437,122.47210923167) scale(1,1)" style="cursor:move;display:inline;opacity:1;" filter="">
            <g style="display:inline"><rect fill="rgba(0,0,0,0)" width="233.6867166874" height="264.94421846334" x="-10" y="-10"></rect><svg version="1.1" id="图层_1" xmlns="http://www.w3.org/2000/svg" xmlns:xlink="http://www.w3.org/1999/xlink" x="0px" y="0px" width="213.6867166874" height="244.94421846334" viewBox="-21.132205963134766 54.980712890625 159.4991912841797 182.83029174804688" style="enable-background:new -41 42.46 200 200;" xml:space="preserve" preserveAspectRatio="none" data-parent="shape_lTvgtjCGsN">
<g id="ckaiMe.tif_2__s55z4lE7NA_c">
	<g>
		<path style="" d="M137.728,109.146c-9.327-29.374-44.171-59.136-88.664-53.465C28.83,58.259,11.89,67.7-2.023,82.624
			c-6.99,7.499-15.701,21.54-16.632,26.87c-0.074,0.415,0.06,0.409,0.268,0.034c4.439-8.182,11.784-17.382,18.018-23.448
			c0.047,0.181,0.087,0.368,0.1,0.549c0.268-0.288,0.529-0.576,0.79-0.857c0.75-0.797,1.453-1.634,2.243-2.377
			c6.1-6.2,13.083-11.389,20.549-15.373c3.729-1.995,7.613-3.609,11.53-4.995c3.937-1.326,7.934-2.343,11.938-3.073
			c1.004-0.167,2.009-0.295,3.013-0.442l1.5-0.214l1.507-0.127c1.004-0.08,2.002-0.161,3-0.248c0.997-0.027,1.995-0.047,2.986-0.074
			c0.516-0.013,0.964-0.034,1.52-0.034l1.466,0.04c0.971,0.033,1.935,0.047,2.913,0.087c0.984,0.087,1.962,0.167,2.946,0.255
			c0.489,0.04,0.978,0.074,1.46,0.134l1.446,0.201c0.958,0.141,1.915,0.268,2.866,0.422c0.944,0.187,1.882,0.375,2.819,0.562
			c0.468,0.1,0.937,0.187,1.399,0.295l1.379,0.355c0.917,0.241,1.835,0.482,2.745,0.723c0.897,0.288,1.788,0.569,2.678,0.857
			l1.332,0.429l1.299,0.495c0.864,0.328,1.727,0.656,2.584,0.984c0.844,0.375,1.681,0.743,2.511,1.112
			c6.662,2.973,12.628,6.823,17.891,11.055c10.546,8.483,18.145,18.56,23.368,28.175c1.747,3.207,3.247,6.374,4.533,9.448
			C138.793,113.779,138.177,110.545,137.728,109.146z M131.519,106.551c-3.489-6.52-8.116-13.247-13.991-19.575
			c-0.43-0.463-0.715-0.527-1.03-0.835c-5.658-5.604-8.398-6.845-11.284-6.53c-0.937,0.1-2.35,1.426-1.62,2.417
			c0.375,0.509,1.165,0.67,1.353,1.272c0.154,0.489-0.569,1.359-0.569,1.359c-0.368,0.362-0.803,0.73-0.87,1.245
			c-0.028,0.231,0.024,0.461,0.093,0.688c0.133,0.438,0.296,0.866,0.454,1.296c0.147,0.4,0.317,0.817,0.632,1.097
			c0.623,0.549,1.915,0.054,2.504-0.341c0.375-0.255,0.234-0.924,0.636-1.125c1.286-0.656,1.694,1.212,1.721,2.31
			c0.007,0.348,0.04,0.77,0.348,0.931c0.12,0.054,1.446,1.694,1.486,2.009c0.054,0.368,0.422,0.596,0.737,0.797
			c1.306,0.83-0.957,2.852-2.069,4.312c-0.415,0.542,0.362,0.924-0.074,1.56c-0.388,0.576,0.107,1.654,0.301,2.203
			c0.281,0.777,0.596,1.594,0.616,2.397c0.08,2.739,0.161,5.403,3.837,5.705c1.473,1.935,3.16,0.562,4.406-0.074
			c1.373-0.703,1.286-2.33,1.185-3.944c-0.1-1.62-0.027-3.549,1.145-4.62c0.83-0.763,1.714-1.138,2.511-1.446
			c0.221-0.08,0.475-0.167,0.683-0.054c1.031,0.536,0.288,2.491,1.125,3.006c1.004,0.616,0.737,0.884,1.486,1.44
			c0.824,0.616,2.699,1.614,4.245,2.504C131.519,106.551,131.515,106.555,131.519,106.551z M86.259,65.818l-1.265-0.489
			l-1.292-0.415c-0.864-0.275-1.728-0.556-2.598-0.837c-0.884-0.234-1.768-0.469-2.658-0.703l-1.339-0.348
			c-0.449-0.107-0.904-0.187-1.359-0.288c-0.911-0.181-1.821-0.368-2.739-0.556c-0.917-0.147-1.848-0.268-2.779-0.409l-1.399-0.201
			c-0.469-0.06-0.931-0.087-1.399-0.134c-0.937-0.08-1.875-0.161-2.819-0.248c-0.957-0.04-1.935-0.06-2.906-0.094l-1.46-0.04
			c-0.422,0-0.951,0.027-1.42,0.04c-0.964,0.027-1.928,0.054-2.899,0.087c-0.971,0.08-1.935,0.167-2.913,0.254l-1.46,0.127
			l-1.453,0.214c-0.971,0.147-1.948,0.268-2.919,0.442c-3.884,0.73-7.76,1.721-11.563,3.047c-3.783,1.386-7.526,2.993-11.128,4.962
			c-3.582,1.995-7.111,4.171-10.418,6.702c-3.301,2.538-6.495,5.283-9.468,8.282c-0.777,0.716-1.46,1.533-2.196,2.297
			c-0.723,0.77-1.453,1.54-2.129,2.364l-2.062,2.437l-1.955,2.538c-0.676,0.83-1.259,1.734-1.882,2.605
			c-0.241,0.348-0.475,0.69-0.723,1.031v0.007c-0.496,1.399-0.737,2.598-0.288,4.908c0.529,2.765,1.982,2.652,2.551,2.585
			c1.433-0.174,1.112-1.948,1.118-2.665c0.013-1.225-0.027-2.504,0.536-3.629c0.007-0.027,0.02-0.047,0.034-0.074
			c0.067-0.12,0.154-0.228,0.281-0.268c1.48-0.469,0.516,6.173,0.589,6.776c0.174,1.493,0.234,2.819-0.562,4.259
			c-1.038,1.888,0.475,3.549,2.591,4.131c1.433,0.388,3.796,0.897,5.022,0.255c2.042-1.071,1.774-0.723,1.446-2.953
			c-0.428-2.993,0.268-5.698,1.922-8.189c0.295-0.455,0.603-0.931,0.777-1.446c1.332-3.89,4.814-4.814,8.43-3.723
			c0.784,0.234,1.681,0.348,2.377-0.08c0.295-0.187,0.529-0.462,0.83-0.636c0.797-0.482,0.402,0.201,1.279,0.509
			c1.004,0.355,2.136,0.516,3.04,1.091c1.272,0.81,2.243,1.178,1.982,2.471c-0.248,1.219,0.087,4.982,2.176,4.366
			c0.603-0.174,0.911-0.931,1.105-1.453c0.442-1.239,0.502-2.685,0.469-3.991c-0.047-1.808,0.214-3.582,2.009-4.426
			c2.009-0.944,4.211-1.486,6.24-2.41c0.656-0.301,1.319-0.629,1.808-1.165c1.205-1.312,1.754-2.765,3.281-3.843
			c1.446-1.024,3.174-1.6,4.935-1.714c1.024-0.06,2.196-0.388,2.591-1.332c0.107-0.248,0.147-0.529,0.301-0.757
			c0.341-0.495,1.051-0.516,1.647-0.449c1.908,0.201,3.596,0.964,5.443,1.332c2.223,0.442,5.136,0.663,7.265,0.02
			c0.837-0.248,1.045-1.319-0.208-2.109c-0.843-0.536-2.183,0.074-3.167-0.147c-0.944-0.214-1.741-0.877-1.774-1.895
			c-0.013-0.542,0.268-1.098,0.75-1.339c0.71-0.355,1.547,0.04,2.337,0.161c1.855,0.288,3.596-0.877,5.464-0.864
			c0.549,0.007,1.306,0.188,1.105,0.931c-0.094,0.362-0.415,0.623-0.75,0.783c-0.341,0.167-0.71,0.255-1.045,0.422
			c-0.335,0.161-0.656,0.422-0.757,0.783c-0.315,1.178,1.433,1.875,2.216,2.277c1.594,0.804,3.308,1.393,5.015,1.908
			c0.261,0.08,0.536,0.147,0.797,0.074c0.415-0.127,0.649-0.603,0.636-1.038c-0.02-0.616-0.395-1.399-0.716-1.928
			c-0.596-0.984-1.982-1.319-2.41-2.397c-0.355-0.917,0.288-1.942,0.147-2.913c-0.101-0.663-0.556-1.219-1.051-1.667
			c-1.078-0.984-2.437-1.634-3.488-2.658c-1.058-1.031-1.868-2.384-2.658-3.616c-0.542-0.85-0.958-1.841-0.824-2.839
			c0.107-0.77,0.556-1.486,1.178-1.948c0.676-0.509,1.553-0.723,2.384-0.603c2.685,0.408,6.508,6.468,9.428,3.522
			c0.395-0.402,0.629-0.931,0.984-1.373c1.212-1.54,3.375-1.413,5.142-1.607c0.241-0.027,0.475-0.047,0.716-0.067
			C86.306,65.838,86.286,65.825,86.259,65.818z" fill="#e7d3b1"></path>
		<path style="" d="M24.331,170.656c0.25-0.293,0.696-0.455,1.254-0.472c13.833-0.425,27.733-0.118,41.574-0.162
			c0.064,0,0.129,0,0.193-0.001c3.47-0.011,6.939,0.007,10.409-0.02c1.735-0.013,3.47-0.037,5.204-0.081
			c1.271-0.032,3.171-0.57,4.069,0.61c0.641,0.842,0.693,1.994,0.553,3.043c-0.335,2.503-1.649,4.862-3.602,6.463
			c-1.797,1.474-4.104,2.333-5.601,4.111c-1.16,1.378-1.702,3.158-2.558,4.744c-1.131,2.095-2.805,3.838-4.457,5.552
			c-0.482,0.5-0.985,1.014-1.631,1.265c-0.961,0.373-2.035,0.1-3.066,0.111c-1.124,0.012-2.212,0.368-3.28,0.72
			c-0.771,0.255-1.556,0.516-2.208,1c-0.998,0.74-1.567,1.904-2.227,2.957c-2.188,3.49-5.76,6.086-9.755,7.088
			c-0.472,0.118-0.983,0.235-1.304,0.6c-0.308,0.35-0.368,0.848-0.562,1.272c-1.197,2.618-6.306,1.155-7.255,3.873
			c-0.239,0.685-0.123,1.517-0.592,2.071c-0.526,0.621-1.734,0.921-1.529,1.708c0.134,0.513,0.856,0.701,0.979,1.217
			c0.119,0.498-0.376,0.899-0.68,1.311c-0.611,0.829-0.251,1.929,0.053,2.912c0.294,0.95,0.53,2.235,0.647,2.618
			c0.175,0.574-0.363,0.705-1.204,0.688c-1.294-0.025-6.947-4.525-7.902-15.515c-0.702-8.074,1.307-16.133,1.976-24.21
			c0.217-2.62,0.284-5.451-1.162-7.647c-1.679-2.55-5.077-3.713-6.371-6.479C24.023,171.42,24.067,170.965,24.331,170.656z" fill="#e7d3b1"></path>
		<path style="" d="M121.731,204.936c-15.894,16.459-36.677,25.236-62.639,26.028
			c-37.29-1.646-63.885-19.358-79.967-53.271c-0.23-0.355-0.413-0.191-0.058,0.838c0.21,0.608,0.216,0.708,0.343,1.055
			c4.161,11.32,10.147,21.587,18.071,30.669c5.021,5.754,10.813,10.706,17.237,14.837c9.97,6.412,20.856,10.248,32.648,11.878
			c13.215,1.827,26.056,0.707,38.608-3.652c16.014-5.561,29.351-14.347,39.403-28.382c2.465-3.441,2.4-4.532,2.4-4.532
			c0.277-0.523-0.398-1.026-0.82-0.611L121.731,204.936z" fill="#e7d3b1"></path>
		<path style="" d="M3.214,119.69" fill="#e7d3b1"></path>
	</g>
</g>
</svg></g>
        </g><g id="shape_aBCKNhfdEE" ref="shape_aBCKNhfdEE" key="shape_aBCKNhfdEE" transform="translate(424.79849243164,360.74475097656) rotate(0,170.5419921875,21.551513671875) scale(1,1)" style="cursor:move;display:inline;opacity:1;" filter="">
            <g style="display:inline"><svg xmlns="http://www.w3.org/2000/svg" version="1.1" xmlns:xlink="http://www.w3.org/1999/xlink" overflow="hidden" style="top:0; left: 0" width="341.083984375" height="43.10302734375" viewBox="0 0 341.083984375 43.10302734375" preserveAspectRatio="none" data-parent="shape_aBCKNhfdEE"><rect fill="rgba(0,0,0,0)" width="341.083984375" height="43.10302734375"></rect> <rect opacity="0"></rect><g transform="translate(0 0)" data-width="259.86376953125"><path fill="#e7d3b1" d="M12.89-3.38Q18.43-3.38 22.01-7.64L22.01-7.64L19.50-9.76Q16.90-6.67 12.89-6.67L12.89-6.67Q9.31-6.67 6.78-9.20L6.78-9.20Q4.25-11.73 4.25-15.31L4.25-15.31Q4.25-18.88 6.78-21.41L6.78-21.41Q9.31-23.93 12.89-23.93L12.89-23.93Q16.90-23.93 19.50-20.85L19.50-20.85L22.01-22.96Q18.43-27.23 12.89-27.23L12.89-27.23Q7.94-27.23 4.46-23.73L4.46-23.73Q0.97-20.24 0.97-15.31L0.97-15.31Q0.97-10.36 4.46-6.88L4.46-6.88Q7.94-3.38 12.89-3.38L12.89-3.38Z" transform="translate(5 27.650390625)" data-glyph-w="22.9775390625"></path><path fill="#e7d3b1" d="M12.89-27.23Q17.82-27.23 21.32-23.73L21.32-23.73Q24.80-20.24 24.80-15.31L24.80-15.31Q24.80-10.36 21.32-6.88L21.32-6.88Q17.82-3.38 12.89-3.38L12.89-3.38Q7.94-3.38 4.46-6.88L4.46-6.88Q0.97-10.36 0.97-15.31L0.97-15.31Q0.97-20.24 4.46-23.73L4.46-23.73Q7.94-27.23 12.89-27.23L12.89-27.23ZM12.89-23.93L12.89-23.93Q9.31-23.93 6.78-21.41L6.78-21.41Q4.25-18.88 4.25-15.31L4.25-15.31Q4.25-11.73 6.78-9.20L6.78-9.20Q9.31-6.67 12.89-6.67L12.89-6.67Q16.47-6.67 18.98-9.20L18.98-9.20Q21.51-11.73 21.51-15.31L21.51-15.31Q21.51-18.88 18.98-21.41L18.98-21.41Q16.47-23.93 12.89-23.93Z" transform="translate(27.9775390625 27.650390625)" data-glyph-w="25.76513671875"></path><path fill="#e7d3b1" d="M12.10-10.78L4.90-21.06L4.90-3.80L1.61-3.80L1.61-26.81L4.90-26.81L13.52-14.49L22.16-26.81L25.44-26.81L25.44-3.80L22.16-3.80L22.16-21.09L14.94-10.78L12.10-10.78Z" transform="translate(53.74267578125 27.650390625)" data-glyph-w="27.05419921875"></path><path fill="#e7d3b1" d="M11.07-12.02L4.90-12.02L4.90-3.80L1.61-3.80L1.61-26.81L11.07-26.81Q14.13-26.81 16.29-24.65L16.29-24.65Q18.47-22.48 18.47-19.42L18.47-19.42Q18.47-16.35 16.29-14.18L16.29-14.18Q14.13-12.02 11.07-12.02L11.07-12.02ZM11.07-23.53L4.90-23.53L4.90-15.31L11.07-15.31Q12.76-15.31 13.97-16.52L13.97-16.52Q15.18-17.71 15.18-19.42L15.18-19.42Q15.18-21.12 13.97-22.32L13.97-22.32Q12.76-23.53 11.07-23.53L11.07-23.53Z" transform="translate(80.796875 27.650390625)" data-glyph-w="19.4326171875"></path><path fill="#e7d3b1" d="M17.16-9.96L6.51-9.96L3.90-3.80L0.32-3.80L10.09-26.81L13.57-26.81L23.33-3.80L19.77-3.80L17.16-9.96ZM7.91-13.25L15.76-13.25L11.83-22.49L7.91-13.25Z" transform="translate(100.2294921875 27.650390625)" data-glyph-w="23.654296875"></path><path fill="#e7d3b1" d="M4.87-26.81L1.61-26.81L1.61-3.80L4.90-3.80L4.90-20.90L16.44-3.80L19.69-3.80L19.69-26.81L16.40-26.81L16.40-9.72L4.87-26.81Z" transform="translate(123.8837890625 27.650390625)" data-glyph-w="21.3017578125"></path><path fill="#e7d3b1" d="M10.18-14.20L10.18-3.80L13.47-3.80L13.47-14.20L23.33-26.81L19.17-26.81L11.83-17.42L4.50-26.81L0.32-26.81L10.18-14.20Z" transform="translate(145.185546875 27.650390625)" data-glyph-w="23.654296875"></path><path fill="#e7d3b1" d="M4.87-26.81L1.61-26.81L1.61-3.80L4.90-3.80L4.90-20.90L16.44-3.80L19.69-3.80L19.69-26.81L16.40-26.81L16.40-9.72L4.87-26.81Z" transform="translate(168.83984375 27.650390625)" data-glyph-w="21.3017578125"></path><path fill="#e7d3b1" d="M17.16-9.96L6.51-9.96L3.90-3.80L0.32-3.80L10.09-26.81L13.57-26.81L23.33-3.80L19.77-3.80L17.16-9.96ZM7.91-13.25L15.76-13.25L11.83-22.49L7.91-13.25Z" transform="translate(190.1416015625 27.650390625)" data-glyph-w="23.654296875"></path><path fill="#e7d3b1" d="M12.10-10.78L4.90-21.06L4.90-3.80L1.61-3.80L1.61-26.81L4.90-26.81L13.52-14.49L22.16-26.81L25.44-26.81L25.44-3.80L22.16-3.80L22.16-21.09L14.94-10.78L12.10-10.78Z" transform="translate(213.7958984375 27.650390625)" data-glyph-w="27.05419921875"></path><path fill="#e7d3b1" d="M1.61-26.81L18.05-26.81L18.05-23.53L4.90-23.53L4.90-16.95L18.05-16.95L18.05-13.66L4.90-13.66L4.90-7.09L18.05-7.09L18.05-3.80L1.61-3.80L1.61-26.81Z" transform="translate(240.85009765625 27.650390625)" data-glyph-w="19.013671875"></path></g></svg></g>
        </g><g id="shape_7lOuK3Mb1b" ref="shape_7lOuK3Mb1b" key="shape_7lOuK3Mb1b" transform="translate(164.39078521729,9.092249877929987) rotate(0,248.44,317.89799999999997) scale(1,1)" style="cursor:move;display:inline;opacity:1;" filter="">
            <g style="display:inline"><svg xmlns="http://www.w3.org/2000/svg" version="1.1" xmlns:xlink="http://www.w3.org/1999/xlink" width="599" height="617.184" viewBox="0 0 599 617.184" preserveAspectRatio="none" data-parent="shape_7lOuK3Mb1b"><rect fill="rgba(0,0,0,0)" width="247" height="88" x="88" y="264.592"></rect><g data-width="246.95199999999997" transform="translate(88, 0)"><path d="M39.16-10.21L2.11-10.21L2.11-22.62L35.20-58.70L51.66-58.70L51.66-20.59L59.40-20.59L59.40-10.21L51.66-10.21L51.66 0L39.16 0L39.16-10.21ZM39.16-45.67L16.10-20.59L39.16-20.59L39.16-45.67Z" transform="translate(0 339.592) skewX(0)" fill="#e7d3b1" stroke="#e7d3b1" stroke-width="0.147" data-glyph-w="67.12799999999999" data-glyph-h="88" data-glyph-ascender="75.592" data-glyph-descender="-12.408"></path><path d="M41.18-58.70L53.59-58.70L53.59 0L41.18 0L41.18-24.29L18.48-24.29L18.48 0L5.98 0L5.98-58.70L18.48-58.70L18.48-34.76L41.18-34.76L41.18-58.70Z" transform="translate(67.12799999999999 339.592) skewX(0)" fill="#e7d3b1" stroke="#e7d3b1" stroke-width="0.147" data-glyph-w="64.576" data-glyph-h="88" data-glyph-ascender="75.592" data-glyph-descender="-12.408"></path><path d="M28.95-58.70L49.98-58.70L49.98-48.22L33.70-48.22Q27.37-48.22 24.46-47.34Q21.56-46.46 19.62-43.91L19.62-43.91Q18.30-42.15 17.82-40.39Q17.34-38.63 16.98-34.41L16.98-34.41L49.98-34.41L49.98-23.94L16.98-23.94Q17.69-16.37 21.47-13.42Q25.26-10.47 34.32-10.47L34.32-10.47L49.98-10.47L49.98 0L33.70 0Q27.10 0 22.09-0.79L22.09-0.79Q14.17-2.11 9.50-7.74L9.50-7.74Q2.82-15.84 2.82-29.66L2.82-29.66Q2.82-44.97 12.23-53.50L12.23-53.50Q15.49-56.41 19.14-57.55Q22.79-58.70 28.95-58.70L28.95-58.70Z" transform="translate(131.70399999999998 339.592) skewX(0)" fill="#e7d3b1" stroke="#e7d3b1" stroke-width="0.147" data-glyph-w="58.855999999999995" data-glyph-h="88" data-glyph-ascender="75.592" data-glyph-descender="-12.408"></path><path d="M19.01 0L19.01-48.22L0.35-48.22L0.35-58.70L50.95-58.70L50.95-48.22L31.50-48.22L31.50 0L19.01 0Z" transform="translate(190.55999999999997 339.592) skewX(0)" fill="#e7d3b1" stroke="#e7d3b1" stroke-width="0.147" data-glyph-w="56.391999999999996" data-glyph-h="88" data-glyph-ascender="75.592" data-glyph-descender="-12.408"></path></g></svg></g>
        </g>
  </svg>